<svg width="512" height="512" viewBox="0 0 512 512" fill="none" xmlns="http://www.w3.org/2000/svg">
<path d="M136 480C142.359 479.981 148.453 477.446 152.95 472.95C157.446 468.453 159.981 462.359 160 456V384C159.994 382.417 160.464 380.87 161.348 379.557C162.232 378.245 163.491 377.228 164.96 376.64C166.417 376.027 168.023 375.86 169.575 376.159C171.126 376.458 172.555 377.21 173.68 378.32L203.412 408.052C205.519 410.159 208.988 409.967 210.85 407.642L233.76 379.04C234.53 378.137 235.486 377.412 236.564 376.915C237.641 376.418 238.813 376.16 240 376.16C241.187 376.16 242.359 376.418 243.436 376.915C244.514 377.412 245.47 378.137 246.24 379.04L268.098 406.328C270.099 408.827 273.901 408.827 275.902 406.328L297.76 379.04C298.53 378.137 299.486 377.412 300.564 376.915C301.641 376.418 302.813 376.16 304 376.16C305.187 376.16 306.359 376.418 307.436 376.915C308.514 377.412 309.47 378.137 310.24 379.04L332.098 406.328C334.099 408.827 337.901 408.827 339.902 406.328L361.76 379.04C362.53 378.137 363.486 377.412 364.564 376.915C365.641 376.418 366.813 376.16 368 376.16C369.187 376.16 370.359 376.418 371.436 376.915C372.514 377.412 373.47 378.137 374.24 379.04L391.098 400.086C394.051 403.773 400 401.685 400 396.96V239.52C400 229.5 400 224 400 208C400 193 400 187.158 400 169.5C400 151.842 400 144.5 400 124.5C400 107.5 400 115.5 400 96.48V56C399.981 49.6406 397.446 43.5472 392.95 39.0504C388.453 34.5537 382.359 32.019 376 32H113.952C109.797 32 107.274 36.946 108.892 40.7734C110.916 45.5615 111.985 50.7345 112 56V456C112.019 462.359 114.554 468.453 119.05 472.95C123.547 477.446 129.641 479.981 136 480ZM152 69C152 66.2386 154.239 64 157 64H355C357.761 64 360 66.2386 360 69V75C360 77.7614 357.761 80 355 80H157C154.239 80 152 77.7614 152 75V69ZM221 224C218.239 224 216 221.761 216 219V213C216 210.239 218.239 208 221 208H323C325.761 208 328 210.239 328 213V219C328 221.761 325.761 224 323 224H221ZM323 256C325.761 256 328 258.239 328 261V267C328 269.761 325.761 272 323 272H245C242.239 272 240 269.761 240 267V261C240 258.239 242.239 256 245 256H323ZM245 176C242.239 176 240 173.761 240 171V165C240 162.239 242.239 160 245 160H323C325.761 160 328 162.239 328 165V171C328 173.761 325.761 176 323 176H245ZM221 128C218.239 128 216 125.761 216 123V117C216 114.239 218.239 112 221 112H323C325.761 112 328 114.239 328 117V123C328 125.761 325.761 128 323 128H221ZM152 117C152 114.239 154.239 112 157 112H195C197.761 112 200 114.239 200 117V123C200 125.761 197.761 128 195 128H157C154.239 128 152 125.761 152 123V117ZM152 165C152 162.239 154.239 160 157 160H219C221.761 160 224 162.239 224 165V171C224 173.761 221.761 176 219 176H157C154.239 176 152 173.761 152 171V165ZM152 213C152 210.239 154.239 208 157 208H195C197.761 208 200 210.239 200 213V219C200 221.761 197.761 224 195 224H157C154.239 224 152 221.761 152 219V213ZM152 261C152 258.239 154.239 256 157 256H219C221.761 256 224 258.239 224 261V267C224 269.761 221.761 272 219 272H157C154.239 272 152 269.761 152 267V261ZM152 309C152 306.239 154.239 304 157 304H355C357.761 304 360 306.239 360 309V315C360 317.761 357.761 320 355 320H157C154.239 320 152 317.761 152 315V309Z" fill="black"/>
<path d="M406.62 429.284L406.63 429.273L429.544 400.665C431.219 398.574 434.338 398.4 436.235 400.292L462.178 426.169C463.024 427.013 463.5 428.159 463.5 429.355V455.999C463.481 462.226 460.999 468.193 456.596 472.596C452.193 476.999 446.226 479.481 439.999 479.5H177.952C176.093 479.5 174.574 478.397 173.695 476.807C172.814 475.212 172.609 473.18 173.353 471.421C175.402 466.572 176.485 461.334 176.5 456.001V456V415.377C176.5 411.365 181.354 409.358 184.187 412.2L201.966 430.033L201.966 430.033L201.972 430.039C202.833 430.875 203.858 431.526 204.982 431.949C206.106 432.372 207.306 432.56 208.505 432.499L208.512 432.499C209.703 432.423 210.864 432.096 211.919 431.539C212.973 430.983 213.898 430.209 214.632 429.27C214.633 429.269 214.633 429.269 214.634 429.268L236.488 401.985C238.289 399.736 241.711 399.736 243.512 401.985L265.37 429.273L265.38 429.284C266.196 430.242 267.211 431.012 268.354 431.539C269.497 432.067 270.741 432.34 272 432.34C273.259 432.34 274.503 432.067 275.646 431.539C276.789 431.012 277.804 430.242 278.62 429.284L278.63 429.273L300.488 401.985C302.289 399.736 305.711 399.736 307.512 401.985L329.37 429.273L329.38 429.284C330.196 430.242 331.211 431.012 332.354 431.539C333.497 432.067 334.741 432.34 336 432.34C337.259 432.34 338.503 432.067 339.646 431.539C340.789 431.012 341.804 430.242 342.62 429.284L342.63 429.273L364.488 401.985C366.289 399.736 369.711 399.736 371.512 401.985L393.37 429.273L393.38 429.284C394.196 430.242 395.211 431.012 396.354 431.539C397.497 432.067 398.741 432.34 400 432.34C401.259 432.34 402.503 432.067 403.646 431.539C404.789 431.012 405.804 430.242 406.62 429.284Z" fill="black" stroke="black" stroke-linecap="round" stroke-linejoin="round"/>
<path d="M48 128.583C48 133.047 53.405 135.273 56.5492 132.105L58.32 130.32C59.8365 128.833 61.8759 128 64 128C66.1241 128 68.1635 128.833 69.68 130.32L84.4645 145.169C86.4158 147.129 89.5876 147.132 91.5432 145.177L94.5355 142.184C95.4732 141.247 96 139.975 96 138.649V56C96 49.6348 93.4714 43.5303 88.9706 39.0294C84.4697 34.5286 78.3652 32 72 32C65.6348 32 59.5303 34.5286 55.0294 39.0294C50.5286 43.5303 48 49.6348 48 56V128.583Z" fill="black"/>
</svg>
