<svg xmlns="http://www.w3.org/2000/svg" viewBox="0 0 578.106 577.729"><g><g><path d="M577.83,455.94q1.837,14.077-8.568,24.48l-81.4,80.781a45.811,45.811,0,0,1-14.381,10.4,59.428,59.428,0,0,1-17.439,5.508q-.612,0-3.676.309t-7.953.307q-11.631,0-37.641-3.979t-63.645-19.584q-37.644-15.606-85.376-46.818t-101.592-85.68q-42.84-42.228-70.992-80.783t-45.288-71.3q-17.138-32.742-25.7-59.364T2.55,164.322Q-.51,145.044.1,134.028t.612-12.24a59.486,59.486,0,0,1,5.508-17.442,45.863,45.863,0,0,1,10.4-14.382l81.4-81.4Q106.59,0,117.606,0a22.832,22.832,0,0,1,14.076,4.59,42.547,42.547,0,0,1,10.4,11.322L207.57,140.148a29.783,29.783,0,0,1,3.06,21.42,38.145,38.145,0,0,1-10.4,19.584L170.238,211.14a10.207,10.207,0,0,0-2.142,3.978,15.1,15.1,0,0,0-.918,4.59q2.448,12.852,11.016,29.376,7.344,14.688,22.644,35.8t43.452,48.653q27.54,28.155,48.96,43.76t35.8,22.949q14.382,7.344,22.031,8.871l7.648,1.531a14.588,14.588,0,0,0,3.979-.918,10.22,10.22,0,0,0,3.979-2.143l34.883-35.5a37.492,37.492,0,0,1,25.705-9.791q10.407,0,16.523,3.672h.611l118.115,69.768Q575.383,443.7,577.83,455.94Z"/></g></g></svg>