<svg xmlns="http://www.w3.org/2000/svg" viewBox="0 0 464.364 540.61"><path d="M94,234.61a10,10,0,1,0,10,10A10,10,0,0,0,94,234.61Z"/><path d="M454.364,114.61c-108.972,0-167.533-58.23-186.777-77.365-3.917-3.9-5.884-5.851-7.956-7.135a10,10,0,0,0-10.536,0c-1.425.883-2.573,2-5.346,4.714a285.524,285.524,0,0,1-49.607,39.4c-42.869,26.8-89.9,40.39-139.778,40.39a10,10,0,0,0-10,10V255.8a288.6,288.6,0,0,0,57.458,173.5c40.764,54.777,93.917,94.158,149.668,110.888a10,10,0,0,0,5.748,0c55.751-16.73,108.9-56.111,149.669-110.889a288.6,288.6,0,0,0,57.457-173.5V124.61A10,10,0,0,0,454.364,114.61Zm-10,141.19a268.749,268.749,0,0,1-53.5,161.56c-37.506,50.4-85.878,86.8-136.5,102.787-50.62-15.989-98.992-52.389-136.5-102.786A268.749,268.749,0,0,1,64.364,255.8V134.44c49.975-1.707,97.155-16.238,140.383-43.262a302.041,302.041,0,0,0,49.666-38.83c20.972,20.83,80.789,78.74,189.951,82.108Z"/><path d="M415.465,152.5c-55.041-6.093-107.259-28.366-155.206-66.2a10,10,0,0,0-12.272-.091C200.5,122.556,145.516,146.028,93.174,152.3a10,10,0,0,0-8.81,9.929v42.38a10,10,0,0,0,20,0V170.96c38.045-5.792,92.067-21.909,149.609-64.239,46.666,35.36,97.186,57.038,150.391,64.54V255.8a228.917,228.917,0,0,1-45.6,137.663c-28.574,38.431-64.609,66.524-104.4,81.434C214.58,459.989,178.549,431.9,149.976,393.48a230.164,230.164,0,0,1-43.992-110.087,10,10,0,1,0-19.86,2.356A250.184,250.184,0,0,0,133.93,405.418c31.744,42.687,72.234,73.652,117.094,89.548a10,10,0,0,0,6.68,0c44.863-15.9,85.357-46.87,117.1-89.565a248.777,248.777,0,0,0,49.558-149.6V162.44A10,10,0,0,0,415.465,152.5Z"/><rect x="24.5" y="443" width="19" height="68" rx="9.5"/><rect x="24.5" y="443" width="19" height="68" rx="9.5" transform="translate(-443 511) rotate(-90)"/><rect x="408.5" width="19" height="68" rx="9.5"/><rect x="408.5" width="19" height="68" rx="9.5" transform="translate(384 452) rotate(-90)"/><path d="M267.7,291.574c0,.769-.015,4.321-.039,4.943l51.01-62.782,11.3-13.021a.815.815,0,0,1,1.431.535v88.039q0,7.623,4.529,9.588c1.8.787,1.185,1.193,7.319,1.226a.83.83,0,0,1,.83.813v2.554a.815.815,0,0,1-.815.815H306.216a.815.815,0,0,1-.816-.815V320.92a.815.815,0,0,1,.816-.815h4.5a10.254,10.254,0,0,0,10.254-10.254V250.872a.816.816,0,0,0-1.45-.513L269.994,311l-10.583,12.6a1.219,1.219,0,0,1-2.153-.784V243.645c0-5.078-.682-11.733,5.26-11.683,5.91.05,5.168,7.452,5.183,17.737Z"/><path d="M300.032,232.8q-13.816-14.991-33.16-15c-7.523,0-16.916,1.56-23.593,4.672a63.562,63.562,0,0,0-18.307,13.029c-8.445,8.524-11.372,18.193-13.366,29.009H200.554V233.143a7.962,7.962,0,0,1,7.962-7.962h2.86V221H179.59v4.179c5.218,0,6.377.492,8.068,1.475s2.534,4.1,2.534,9.343v73.488a9.853,9.853,0,0,1-9.853,9.853h-.97v4.179h31.787V319.34c-5.222,0-6.227-.407-7.609-1.229q-3-1.966-2.993-9.588v-38.6h10.362v5.654A51.769,51.769,0,0,0,224.7,311.473c5.691,6.3,12.706,11.4,22.568,12.631,2.635.328,4.781-1.04,4.72-3.695l-.007-.28c-.049-2.129-1.637-3-3.721-3.448-6.945-1.475-13.463-6.267-17.489-10.894-8.674-9.968-9.272-19.9-9.272-31.606,0-12.683,1.7-23.639,9.68-32.866s20.715-16.134,33.61-16.134c11.514,0,21.646,2.731,30.4,12.781,4.671,5.384,7.977,13.387,10.016,19.4,3.091-.689,3.977-1.135,7.23-1.294A50.583,50.583,0,0,0,300.032,232.8Z"/></svg>