<svg xmlns="http://www.w3.org/2000/svg" viewBox="0 0 611.999 497.119"><path d="M612,58.817a250.714,250.714,0,0,1-72.088,19.772A126.067,126.067,0,0,0,595.1,9.178a253.1,253.1,0,0,1-79.775,30.48A125.643,125.643,0,0,0,301.39,154.119,356.432,356.432,0,0,1,42.64,22.945,125.692,125.692,0,0,0,81.5,190.525a125.556,125.556,0,0,1-56.867-15.756v1.568a125.671,125.671,0,0,0,100.693,123.1,127.165,127.165,0,0,1-33.08,4.4,120.5,120.5,0,0,1-23.634-2.333A125.612,125.612,0,0,0,185.86,388.7,251.888,251.888,0,0,1,29.944,442.355,266.815,266.815,0,0,1,0,440.634a354.876,354.876,0,0,0,192.438,56.485c230.948,0,357.188-191.291,357.188-357.188l-.421-16.253A250.7,250.7,0,0,0,612,58.817Z" /></svg>
