<svg xmlns="http://www.w3.org/2000/svg" viewBox="0 0 548.359 312.863"><g><g><path d="M545.451,282.55a37.557,37.557,0,0,0-1.858-3.569q-14.271-25.7-54.532-63.1l-.567-.571-.284-.28-.287-.287h-.288q-18.27-17.417-23.123-23.415-8.865-11.421-4-23.13,3.423-8.85,25.7-37.4,11.711-15.134,18.556-24.267,49.4-65.67,42.828-83.939l-1.7-2.847q-1.714-2.571-8.846-4.712t-18.278-.712l-82.224.568a10.67,10.67,0,0,0-5.712.144l-3.713.859-1.431.715-1.136.859a12.69,12.69,0,0,0-3.142,3,19.591,19.591,0,0,0-2.848,5A466.2,466.2,0,0,1,388,89.7q-10.565,17.7-19.418,30.693t-14.842,19.126a103.562,103.562,0,0,1-10.852,9.849q-4.856,3.717-7.419,3.142c-1.715-.383-3.33-.763-4.859-1.143a18.986,18.986,0,0,1-6.42-7,31.323,31.323,0,0,1-3.285-11.136q-.852-6.714-1-11.563t.145-13.706q.3-8.854.287-11.991,0-10.851.424-23.555t.716-20.125q.291-7.423.284-15.7a65.974,65.974,0,0,0-1-12.991,44.442,44.442,0,0,0-2.99-9.137,15.385,15.385,0,0,0-5.853-6.852,32.991,32.991,0,0,0-9.564-3.856Q287.225.326,263.811.041q-53.1-.57-68.236,6.855a38.462,38.462,0,0,0-10.848,8.562q-5.141,6.283-1.431,6.851,17.133,2.566,24.267,12.275l1.715,3.429q2,3.711,4,13.134a132.5,132.5,0,0,1,2.568,20.837,222.239,222.239,0,0,1,0,35.689q-1.429,14.85-2.712,23.127a46.3,46.3,0,0,1-3.855,13.418,56.612,56.612,0,0,1-3.428,6.28,4.915,4.915,0,0,1-1.425,1.427,21.387,21.387,0,0,1-7.71,1.431q-4,0-9.707-4a68.492,68.492,0,0,1-11.847-10.992,146.939,146.939,0,0,1-13.85-19.558q-7.706-12.561-15.987-29.691l-4.567-8.282q-4.283-7.992-11.7-23.267T115.919,28.012a18.82,18.82,0,0,0-6.851-9.134l-1.429-.859a19.541,19.541,0,0,0-4.567-2.427,30.3,30.3,0,0,0-6.567-1.854l-78.229.568Q6.285,14.306,2,19.734L.859,21.445A9.236,9.236,0,0,0,0,26.015a22.731,22.731,0,0,0,1.714,7.707q17.13,40.26,37.257,77.659t34.973,60.237q14.845,22.844,30.264,43.112t20.412,25.981q5,5.718,7.854,8.565l7.139,6.851q6.852,6.853,20.127,16.416a343.34,343.34,0,0,0,29.408,18.85,159.533,159.533,0,0,0,37.546,15.126,129.822,129.822,0,0,0,41.684,4.716h32.834q9.988-.862,15.133-6.283l1.136-1.431a18.927,18.927,0,0,0,2.139-5.276,29.005,29.005,0,0,0,1-7.851,94.076,94.076,0,0,1,1.852-22.124q2.135-9.846,4.859-14.846a36.491,36.491,0,0,1,6.136-8.418,24.812,24.812,0,0,1,4.862-4.142,18.632,18.632,0,0,1,2.276-1q6.852-2.283,16.136,4.429a94.767,94.767,0,0,1,17.418,16.56q8.138,9.855,19.555,22.124T413.7,301.252l5.708,3.426a69.521,69.521,0,0,0,14.853,6.283q9.122,2.853,15.984,1.427l73.087-1.14q10.843,0,16.844-3.572t7.139-7.851a22.109,22.109,0,0,0,.145-9.712A35.835,35.835,0,0,0,545.451,282.55Z"/></g></g></svg>