<svg xmlns="http://www.w3.org/2000/svg" viewBox="0 0 22.497 23.109"><g><g><path d="M10.729,1.209a9.866,9.866,0,0,1,6.1,2.2,10.169,10.169,0,0,1,4,6.7,16.413,16.413,0,0,1,.2,2.3,2.037,2.037,0,0,0,.2,1.1.536.536,0,0,0,.4.3c.1,0,.2,0,.2-.1a.574.574,0,0,0,.2-.7,2.442,2.442,0,0,1-.1-.7,8.751,8.751,0,0,0-.3-2.4,11.114,11.114,0,0,0-4.4-7.3,11.832,11.832,0,0,0-6.7-2.4c-.8,0-.9-.1-.9-.1a.494.494,0,0,0-.7.1c.1.2.1.5.3.7A2.81,2.81,0,0,0,10.729,1.209Z"/><path d="M17.129,8.009a6.5,6.5,0,0,1,.8,3.1,1.809,1.809,0,0,0,.7,1.7c.1,0,.1.1.2.1.2,0,.4-.1.4-.3a.663.663,0,0,0-.2-.7c-.1,0-.2-.1-.2-.8a7.126,7.126,0,0,0-.9-3.6,6.64,6.64,0,0,0-2.7-2.8,8.893,8.893,0,0,0-3.7-1.1c-.4,0-.5-.1-.5-.2a.495.495,0,0,0-.7.7,1.366,1.366,0,0,0,1.1.4,8.513,8.513,0,0,1,3.3,1A6.423,6.423,0,0,1,17.129,8.009Z"/><path d="M15.629,10.309a5.3,5.3,0,0,0-.4-1.6,2.957,2.957,0,0,0-2.7-1.7c-.5-.1-.5-.1-.6-.2a.494.494,0,0,0-.7-.1.616.616,0,0,0-.1.7,1.911,1.911,0,0,0,1.2.5,2.063,2.063,0,0,1,1.9,1.2,2.768,2.768,0,0,1,.3,1.3,1.626,1.626,0,0,0,.5,1.1.367.367,0,0,0,.3.1.52.52,0,0,0,.4-.2.494.494,0,0,0-.1-.7C15.729,10.709,15.629,10.709,15.629,10.309Z"/><path d="M22.029,17.309c-.3-.3-1.9-1.6-2.6-2.1a13.034,13.034,0,0,0-1.9-1.1,2.539,2.539,0,0,0-1.9-.2c-.5.2-.7.4-1.3,1.1a1.791,1.791,0,0,0-.5.7.349.349,0,0,1-.2.1c-.3.1-.8,0-1.7-.4a10.188,10.188,0,0,1-2.2-1.6,10.06,10.06,0,0,1-1.7-2,5.38,5.38,0,0,1-.8-2.2c0-.2,0-.5.1-.6l.1-.1c.1-.1.3-.2.5-.4.9-.7,1.2-1,1.3-1.5a2.955,2.955,0,0,0-.4-1.9,16.8,16.8,0,0,0-3.3-4.3c-.1-.1-.4-.2-.5-.3a5.284,5.284,0,0,0-1.2-.1,6.82,6.82,0,0,0-1.9,1.1,12.068,12.068,0,0,0-1.6,1.6,3.407,3.407,0,0,0,.1,3.1,34.011,34.011,0,0,0,2.7,5.4c.2.3.3.5.5.8s.4.5.6.8a25.926,25.926,0,0,0,6.5,6.3l.1.1c.1.1.3.2.4.3l.3.2c.2.1.3.2.5.3l2.8,1.6.6.3.3.1c.3.1.6.3.9.4a3.915,3.915,0,0,0,1.3.3h.2a3.405,3.405,0,0,0,2-.8,7.954,7.954,0,0,0,2.2-2.7A2.3,2.3,0,0,0,22.029,17.309Z"/></g></g></svg>