<svg xmlns="http://www.w3.org/2000/svg" viewBox="0 0 33.231 33.231"><g><g><g><g><path d="M16.917,32.375a16.34,16.34,0,0,1-7.885-2.014L0,33.231l2.944-8.685A16.026,16.026,0,0,1,.6,16.187,16.314,16.314,0,1,1,16.917,32.375Zm0-29.8A13.677,13.677,0,0,0,3.2,16.187a13.476,13.476,0,0,0,2.612,7.98L4.1,29.221l5.27-1.675A13.73,13.73,0,0,0,30.633,16.188,13.679,13.679,0,0,0,16.917,2.578Zm8.238,17.338c-.1-.165-.367-.265-.766-.463s-2.367-1.159-2.733-1.291-.634-.2-.9.2-1.033,1.291-1.267,1.556-.466.3-.866.1a10.935,10.935,0,0,1-3.216-1.969A11.963,11.963,0,0,1,13.183,15.3c-.233-.4-.025-.612.175-.809.18-.178.4-.464.6-.7a2.663,2.663,0,0,0,.4-.662.724.724,0,0,0-.033-.695c-.1-.2-.9-2.151-1.234-2.946s-.665-.661-.9-.661-.5-.034-.767-.034a1.475,1.475,0,0,0-1.066.5A4.433,4.433,0,0,0,8.96,12.6a7.682,7.682,0,0,0,1.632,4.1c.2.265,2.766,4.4,6.831,5.99s4.066,1.059,4.8.993a4.046,4.046,0,0,0,2.7-1.886,3.313,3.313,0,0,0,.233-1.887Z" style="fill-rule:evenodd"/></g></g></g></g></svg>