<?xml version="1.0" encoding="utf-8"?><svg viewBox="0 0 612 577.73" xmlns="http://www.w3.org/2000/svg" xmlns:xlink="http://www.w3.org/1999/xlink"><style>:root>svg{display:none}:root>svg:target{display:block}</style><svg fill="none" viewBox="0 0 402 179" id="clip-medium" xmlns="http://www.w3.org/2000/svg"><path d="M.5 119.5v-109L381 0c14.833 5 24.2 9.6 19 52-5.2 42.4-13 57.5-33 78.5-13.667 16.5-59 49.255-151 48-88-1.2-180.333-39.833-215.5-59z" fill="#fff"/></svg><svg viewBox="0 0 244.047 486.391" id="f" xmlns="http://www.w3.org/2000/svg"><path d="M152.271 159.354l.122-41.951c0-21.857 1.52-33.561 32.831-33.561h57.941V0h-83.021c-80.559 0-99.1 41.617-99.1 109.985l.091 49.369-61.135.03V243.2h61.133v243.2H152.3l.061-243.2 82.778-.03 8.907-83.811z"/></svg><svg viewBox="0 0 49.576 49.575" id="i" xmlns="http://www.w3.org/2000/svg"><path d="M39.995 0H9.581A9.591 9.591 0 000 9.58v30.415a9.591 9.591 0 009.581 9.58H40a9.59 9.59 0 009.58-9.58V9.579A9.591 9.591 0 0039.995 0zm2.748 5.713h1.1v8.4l-8.375.027-.029-8.4zM17.712 19.7a8.71 8.71 0 11-1.651 5.088 8.723 8.723 0 011.651-5.088zm27.033 20.294a4.754 4.754 0 01-4.75 4.75H9.581a4.755 4.755 0 01-4.751-4.75V19.7h7.4a13.557 13.557 0 1025.113 0h7.4z"/></svg><svg fill="none" viewBox="0 0 310 147" id="image-decor" xmlns="http://www.w3.org/2000/svg"><path d="M178 145C95.2 141.8 25.833 102 1.5 82.5v-81H257c37.5 0 35.697-8 46 19 11.6 30.4 4.833 62.5 0 72-7.167 18.833-42.2 55.7-125 52.5z" fill="#D7A550" fill-opacity=".1"/><path d="M1 91c26.167 16 89 49.1 131 53.5 52.5 5.5 90.5-.5 120.5-29.5s32-77.971 32-95.5V2" stroke="#D7A550" stroke-opacity=".5" stroke-width=".7"/></svg><svg fill="none" viewBox="0 0 439 242" id="image-decor-big" xmlns="http://www.w3.org/2000/svg"><path d="M241.342 241.688C131.684 239.688 93 218 9 168V3.767h314c52.126 0 47.988-4.781 81 34.233 22 26 21.719 91.845 15 107-9.962 30.044-68 98.688-177.658 96.688z" fill="#FBF6ED"/><path d="M1 130c12 35 146.259 90.659 207 97 75.926 7.926 136.561 7.126 184-30 46-36 46-85.74 46-111 0-46-26-85-26-85" stroke="#D7A550" stroke-opacity=".5" stroke-width=".7"/></svg><svg viewBox="0 0 23 10" id="more-pointer" xmlns="http://www.w3.org/2000/svg"><path fill-rule="evenodd" d="M-.001 6.186h17.247v3.813L23 5 17.246-.001v3.813H-.001v2.374z"/></svg><svg viewBox="0 0 11.143 19.602" id="o" xmlns="http://www.w3.org/2000/svg"><path d="M5.5 10a5 5 0 10-5-5 5 5 0 005 5zm0-7a2 2 0 11-2 2 2 2 0 012-2zM7.331 14.049a9.34 9.34 0 003.15-1.224 1.4 1.4 0 00-1.476-2.379L9 10.451a6.715 6.715 0 01-6.882.064 1.4 1.4 0 00-1.442 2.4 9.349 9.349 0 003 1.133L.512 17.21a1.4 1.4 0 001.977 1.984L5.5 16.18l3.01 3.01a1.4 1.4 0 001.99-1.976z"/></svg><svg viewBox="0 0 162 60" id="path" xmlns="http://www.w3.org/2000/svg"><path fill="none" d="M160 1.999S128 107 1 26.999M28 31L3 26.999M13 48.999l-11-22"/></svg><svg viewBox="0 0 578.106 577.729" id="phone" xmlns="http://www.w3.org/2000/svg"><path d="M577.83 455.94q1.837 14.077-8.568 24.48l-81.4 80.781a45.811 45.811 0 01-14.381 10.4 59.428 59.428 0 01-17.439 5.508q-.612 0-3.676.309t-7.953.307q-11.631 0-37.641-3.979t-63.645-19.584q-37.644-15.606-85.376-46.818t-101.592-85.68q-42.84-42.228-70.992-80.783t-45.288-71.3q-17.138-32.742-25.7-59.364T2.55 164.322Q-.51 145.044.1 134.028t.612-12.24a59.486 59.486 0 015.508-17.442 45.863 45.863 0 0110.4-14.382l81.4-81.4Q106.59 0 117.606 0a22.832 22.832 0 0114.076 4.59 42.547 42.547 0 0110.4 11.322l65.488 124.236a29.783 29.783 0 013.06 21.42 38.145 38.145 0 01-10.4 19.584l-29.992 29.988a10.207 10.207 0 00-2.142 3.978 15.1 15.1 0 00-.918 4.59q2.448 12.852 11.016 29.376 7.344 14.688 22.644 35.8t43.452 48.653q27.54 28.155 48.96 43.76t35.8 22.949q14.382 7.344 22.031 8.871l7.648 1.531a14.588 14.588 0 003.979-.918 10.22 10.22 0 003.979-2.143l34.883-35.5a37.492 37.492 0 0125.705-9.791q10.407 0 16.523 3.672h.611l118.115 69.768q12.859 7.964 15.306 20.204z"/></svg><svg viewBox="0 0 352.065 512" id="pin" xmlns="http://www.w3.org/2000/svg"><path d="M327.611 87.678C296.538 34.054 241.346 1.292 179.971.041a188.09 188.09 0 00-7.878 0C110.719 1.292 55.527 34.054 24.453 87.678-7.309 142.489-8.178 208.33 22.128 263.8l126.963 232.387c.057.1.114.206.173.308a30.861 30.861 0 0053.538 0c.059-.1.116-.2.173-.308L329.938 263.8c30.3-55.471 29.435-121.311-2.327-176.123zM176.032 232a72 72 0 1172-72 72.081 72.081 0 01-72 72z"/></svg><svg viewBox="0 0 448.011 415.971" id="pointer" xmlns="http://www.w3.org/2000/svg"><path d="M438.731 193.443l-416-192A16.086 16.086 0 003.6 5.923a15.911 15.911 0 00-.384 19.648l136.8 182.4-136.8 182.4A15.993 15.993 0 0022.7 414.5l416-192a16 16 0 00.032-29.056z"/></svg><svg viewBox="0 0 448.011 415.971" id="pointer-brown" xmlns="http://www.w3.org/2000/svg"><path d="M438.731 193.443l-416-192A16.086 16.086 0 003.6 5.923a15.911 15.911 0 00-.384 19.648l136.8 182.4-136.8 182.4A15.993 15.993 0 0022.7 414.5l416-192a16 16 0 00.032-29.056z" fill="#d7a550"/></svg><svg viewBox="0 0 464.364 540.61" id="shield" xmlns="http://www.w3.org/2000/svg"><path d="M94 234.61a10 10 0 1010 10 10 10 0 00-10-10z"/><path d="M454.364 114.61c-108.972 0-167.533-58.23-186.777-77.365-3.917-3.9-5.884-5.851-7.956-7.135a10 10 0 00-10.536 0c-1.425.883-2.573 2-5.346 4.714a285.524 285.524 0 01-49.607 39.4c-42.869 26.8-89.9 40.39-139.778 40.39a10 10 0 00-10 10V255.8a288.6 288.6 0 0057.458 173.5c40.764 54.777 93.917 94.158 149.668 110.888a10 10 0 005.748 0c55.751-16.73 108.9-56.111 149.669-110.889a288.6 288.6 0 0057.457-173.5V124.61a10 10 0 00-10-10zm-10 141.19a268.749 268.749 0 01-53.5 161.56c-37.506 50.4-85.878 86.8-136.5 102.787-50.62-15.989-98.992-52.389-136.5-102.786a268.749 268.749 0 01-53.5-161.561V134.44c49.975-1.707 97.155-16.238 140.383-43.262a302.041 302.041 0 0049.666-38.83c20.972 20.83 80.789 78.74 189.951 82.108z"/><path d="M415.465 152.5c-55.041-6.093-107.259-28.366-155.206-66.2a10 10 0 00-12.272-.091C200.5 122.556 145.516 146.028 93.174 152.3a10 10 0 00-8.81 9.929v42.38a10 10 0 0020 0V170.96c38.045-5.792 92.067-21.909 149.609-64.239 46.666 35.36 97.186 57.038 150.391 64.54V255.8a228.917 228.917 0 01-45.6 137.663c-28.574 38.431-64.609 66.524-104.4 81.434-39.784-14.908-75.815-42.997-104.388-81.417a230.164 230.164 0 01-43.992-110.087 10 10 0 10-19.86 2.356 250.184 250.184 0 0047.806 119.669c31.744 42.687 72.234 73.652 117.094 89.548a10 10 0 006.68 0c44.863-15.9 85.357-46.87 117.1-89.565a248.777 248.777 0 0049.558-149.6V162.44a10 10 0 00-8.897-9.94z"/><rect x="24.5" y="443" width="19" height="68" rx="9.5"/><rect x="24.5" y="443" width="19" height="68" rx="9.5" transform="rotate(-90 34 477)"/><rect x="408.5" width="19" height="68" rx="9.5"/><rect x="408.5" width="19" height="68" rx="9.5" transform="rotate(-90 418 34)"/><path d="M267.7 291.574c0 .769-.015 4.321-.039 4.943l51.01-62.782 11.3-13.021a.815.815 0 011.431.535v88.039q0 7.623 4.529 9.588c1.8.787 1.185 1.193 7.319 1.226a.83.83 0 01.83.813v2.554a.815.815 0 01-.815.815h-37.049a.815.815 0 01-.816-.815v-2.549a.815.815 0 01.816-.815h4.5a10.254 10.254 0 0010.254-10.254v-58.979a.816.816 0 00-1.45-.513L269.994 311l-10.583 12.6a1.219 1.219 0 01-2.153-.784v-79.171c0-5.078-.682-11.733 5.26-11.683 5.91.05 5.168 7.452 5.183 17.737z"/><path d="M300.032 232.8q-13.816-14.991-33.16-15c-7.523 0-16.916 1.56-23.593 4.672a63.562 63.562 0 00-18.307 13.029c-8.445 8.524-11.372 18.193-13.366 29.009h-11.052v-31.367a7.962 7.962 0 017.962-7.962h2.86V221H179.59v4.179c5.218 0 6.377.492 8.068 1.475s2.534 4.1 2.534 9.343v73.488a9.853 9.853 0 01-9.853 9.853h-.97v4.179h31.787v-4.177c-5.222 0-6.227-.407-7.609-1.229q-3-1.966-2.993-9.588v-38.6h10.362v5.654a51.769 51.769 0 0013.784 35.896c5.691 6.3 12.706 11.4 22.568 12.631 2.635.328 4.781-1.04 4.72-3.695l-.007-.28c-.049-2.129-1.637-3-3.721-3.448-6.945-1.475-13.463-6.267-17.489-10.894-8.674-9.968-9.272-19.9-9.272-31.606 0-12.683 1.7-23.639 9.68-32.866s20.715-16.134 33.61-16.134c11.514 0 21.646 2.731 30.4 12.781 4.671 5.384 7.977 13.387 10.016 19.4 3.091-.689 3.977-1.135 7.23-1.294a50.583 50.583 0 00-12.403-23.268z"/></svg><svg viewBox="0 0 459.999 385.776" id="t" xmlns="http://www.w3.org/2000/svg"><path d="M458.688 35.119l-69.417 327.37c-5.237 23.105-18.9 28.854-38.3 17.972L245.2 302.519l-51.034 49.086c-5.647 5.647-10.372 10.372-21.256 10.372l7.6-107.722L376.538 77.118c8.523-7.6-1.848-11.809-13.247-4.21L120.949 225.5 16.618 192.848c-22.694-7.086-23.1-22.7 4.723-33.579L429.422 2.054c18.893-7.085 35.427 4.209 29.266 33.065z"/></svg><svg viewBox="0 0 611.999 497.119" id="tw" xmlns="http://www.w3.org/2000/svg"><path d="M612 58.817a250.714 250.714 0 01-72.088 19.772A126.067 126.067 0 00595.1 9.178a253.1 253.1 0 01-79.775 30.48A125.643 125.643 0 00301.39 154.119 356.432 356.432 0 0142.64 22.945a125.692 125.692 0 0038.86 167.58 125.556 125.556 0 01-56.867-15.756v1.568a125.671 125.671 0 00100.693 123.1 127.165 127.165 0 01-33.08 4.4 120.5 120.5 0 01-23.634-2.333A125.612 125.612 0 00185.86 388.7a251.888 251.888 0 01-155.916 53.655A266.815 266.815 0 010 440.634a354.876 354.876 0 00192.438 56.485c230.948 0 357.188-191.291 357.188-357.188l-.421-16.253A250.7 250.7 0 00612 58.817z"/></svg><svg viewBox="0 0 512.002 276.517" id="updown" xmlns="http://www.w3.org/2000/svg"><path d="M270.051 270.683L506.212 33.867A19.846 19.846 0 10478.105 5.84L256 228.56 33.9 5.832A19.847 19.847 0 005.8 33.866l236.15 236.817a19.836 19.836 0 0028.1 0z"/></svg><svg viewBox="0 0 548.359 312.863" id="v" xmlns="http://www.w3.org/2000/svg"><path d="M545.451 282.55a37.557 37.557 0 00-1.858-3.569q-14.271-25.7-54.532-63.1l-.567-.571-.284-.28-.287-.287h-.288q-18.27-17.417-23.123-23.415-8.865-11.421-4-23.13 3.423-8.85 25.7-37.4 11.711-15.134 18.556-24.267 49.4-65.67 42.828-83.939l-1.7-2.847q-1.714-2.571-8.846-4.712t-18.278-.712l-82.224.568a10.67 10.67 0 00-5.712.144l-3.713.859-1.431.715-1.136.859a12.69 12.69 0 00-3.142 3 19.591 19.591 0 00-2.848 5A466.2 466.2 0 01388 89.7q-10.565 17.7-19.418 30.693t-14.842 19.126a103.562 103.562 0 01-10.852 9.849q-4.856 3.717-7.419 3.142c-1.715-.383-3.33-.763-4.859-1.143a18.986 18.986 0 01-6.42-7 31.323 31.323 0 01-3.285-11.136q-.852-6.714-1-11.563t.145-13.706q.3-8.854.287-11.991 0-10.851.424-23.555t.716-20.125q.291-7.423.284-15.7a65.974 65.974 0 00-1-12.991 44.442 44.442 0 00-2.99-9.137 15.385 15.385 0 00-5.853-6.852 32.991 32.991 0 00-9.564-3.856Q287.225.326 263.811.041q-53.1-.57-68.236 6.855a38.462 38.462 0 00-10.848 8.562q-5.141 6.283-1.431 6.851 17.133 2.566 24.267 12.275l1.715 3.429q2 3.711 4 13.134a132.5 132.5 0 012.568 20.837 222.239 222.239 0 010 35.689q-1.429 14.85-2.712 23.127a46.3 46.3 0 01-3.855 13.418 56.612 56.612 0 01-3.428 6.28 4.915 4.915 0 01-1.425 1.427 21.387 21.387 0 01-7.71 1.431q-4 0-9.707-4a68.492 68.492 0 01-11.847-10.992 146.939 146.939 0 01-13.85-19.558q-7.706-12.561-15.987-29.691l-4.567-8.282q-4.283-7.992-11.7-23.267t-13.139-29.554a18.82 18.82 0 00-6.851-9.134l-1.429-.859a19.541 19.541 0 00-4.567-2.427 30.3 30.3 0 00-6.567-1.854l-78.229.568Q6.285 14.306 2 19.734L.859 21.445A9.236 9.236 0 000 26.015a22.731 22.731 0 001.714 7.707q17.13 40.26 37.257 77.659t34.973 60.237q14.845 22.844 30.264 43.112t20.412 25.981q5 5.718 7.854 8.565l7.139 6.851q6.852 6.853 20.127 16.416a343.34 343.34 0 0029.408 18.85 159.533 159.533 0 0037.546 15.126 129.822 129.822 0 0041.684 4.716h32.834q9.988-.862 15.133-6.283l1.136-1.431a18.927 18.927 0 002.139-5.276 29.005 29.005 0 001-7.851 94.076 94.076 0 011.852-22.124q2.135-9.846 4.859-14.846a36.491 36.491 0 016.136-8.418 24.812 24.812 0 014.862-4.142 18.632 18.632 0 012.276-1q6.852-2.283 16.136 4.429a94.767 94.767 0 0117.418 16.56q8.138 9.855 19.555 22.124t19.986 18.275l5.708 3.426a69.521 69.521 0 0014.853 6.283q9.122 2.853 15.984 1.427l73.087-1.14q10.843 0 16.844-3.572t7.139-7.851a22.109 22.109 0 00.145-9.712 35.835 35.835 0 00-2.009-7.563z"/></svg><svg viewBox="0 0 22.497 23.109" id="vb" xmlns="http://www.w3.org/2000/svg"><path d="M10.729 1.209a9.866 9.866 0 016.1 2.2 10.169 10.169 0 014 6.7 16.413 16.413 0 01.2 2.3 2.037 2.037 0 00.2 1.1.536.536 0 00.4.3c.1 0 .2 0 .2-.1a.574.574 0 00.2-.7 2.442 2.442 0 01-.1-.7 8.751 8.751 0 00-.3-2.4 11.114 11.114 0 00-4.4-7.3 11.832 11.832 0 00-6.7-2.4c-.8 0-.9-.1-.9-.1a.494.494 0 00-.7.1c.1.2.1.5.3.7a2.81 2.81 0 001.5.3z"/><path d="M17.129 8.009a6.5 6.5 0 01.8 3.1 1.809 1.809 0 00.7 1.7c.1 0 .1.1.2.1.2 0 .4-.1.4-.3a.663.663 0 00-.2-.7c-.1 0-.2-.1-.2-.8a7.126 7.126 0 00-.9-3.6 6.64 6.64 0 00-2.7-2.8 8.893 8.893 0 00-3.7-1.1c-.4 0-.5-.1-.5-.2a.495.495 0 00-.7.7 1.366 1.366 0 001.1.4 8.513 8.513 0 013.3 1 6.423 6.423 0 012.4 2.5z"/><path d="M15.629 10.309a5.3 5.3 0 00-.4-1.6 2.957 2.957 0 00-2.7-1.7c-.5-.1-.5-.1-.6-.2a.494.494 0 00-.7-.1.616.616 0 00-.1.7 1.911 1.911 0 001.2.5 2.063 2.063 0 011.9 1.2 2.768 2.768 0 01.3 1.3 1.626 1.626 0 00.5 1.1.367.367 0 00.3.1.52.52 0 00.4-.2.494.494 0 00-.1-.7c.1 0 0 0 0-.4z"/><path d="M22.029 17.309c-.3-.3-1.9-1.6-2.6-2.1a13.034 13.034 0 00-1.9-1.1 2.539 2.539 0 00-1.9-.2c-.5.2-.7.4-1.3 1.1a1.791 1.791 0 00-.5.7.349.349 0 01-.2.1c-.3.1-.8 0-1.7-.4a10.188 10.188 0 01-2.2-1.6 10.06 10.06 0 01-1.7-2 5.38 5.38 0 01-.8-2.2c0-.2 0-.5.1-.6l.1-.1c.1-.1.3-.2.5-.4.9-.7 1.2-1 1.3-1.5a2.955 2.955 0 00-.4-1.9 16.8 16.8 0 00-3.3-4.3c-.1-.1-.4-.2-.5-.3a5.284 5.284 0 00-1.2-.1 6.82 6.82 0 00-1.9 1.1 12.068 12.068 0 00-1.6 1.6 3.407 3.407 0 00.1 3.1 34.011 34.011 0 002.7 5.4c.2.3.3.5.5.8s.4.5.6.8a25.926 25.926 0 006.5 6.3l.1.1c.1.1.3.2.4.3l.3.2c.2.1.3.2.5.3l2.8 1.6.6.3.3.1c.3.1.6.3.9.4a3.915 3.915 0 001.3.3h.2a3.405 3.405 0 002-.8 7.954 7.954 0 002.2-2.7 2.3 2.3 0 00-.3-2.3z"/></svg><svg viewBox="0 0 167 60" id="we-help" xmlns="http://www.w3.org/2000/svg"><path stroke="#E7B96A" stroke-width="2" fill="none" d="M3.289 19.077S61.26 112.151 163.188 1.984M138.162 12.846l23.096-10.344M157.282 26.336l4.941-24.093"/></svg><svg viewBox="0 0 33.231 33.231" id="wt" xmlns="http://www.w3.org/2000/svg"><path d="M16.917 32.375a16.34 16.34 0 01-7.885-2.014L0 33.231l2.944-8.685A16.026 16.026 0 01.6 16.187a16.314 16.314 0 1116.317 16.188zm0-29.8A13.677 13.677 0 003.2 16.187a13.476 13.476 0 002.612 7.98L4.1 29.221l5.27-1.675a13.73 13.73 0 0021.263-11.358 13.679 13.679 0 00-13.716-13.61zm8.238 17.338c-.1-.165-.367-.265-.766-.463s-2.367-1.159-2.733-1.291-.634-.2-.9.2-1.033 1.291-1.267 1.556-.466.3-.866.1a10.935 10.935 0 01-3.216-1.969 11.963 11.963 0 01-2.224-2.746c-.233-.4-.025-.612.175-.809.18-.178.4-.464.6-.7a2.663 2.663 0 00.4-.662.724.724 0 00-.033-.695c-.1-.2-.9-2.151-1.234-2.946s-.665-.661-.9-.661-.5-.034-.767-.034a1.475 1.475 0 00-1.066.5A4.433 4.433 0 008.96 12.6a7.682 7.682 0 001.632 4.1c.2.265 2.766 4.4 6.831 5.99s4.066 1.059 4.8.993a4.046 4.046 0 002.7-1.886 3.313 3.313 0 00.233-1.887z" fill-rule="evenodd"/></svg></svg>