<?xml version="1.0" encoding="utf-8"?><svg viewBox="0 0 578.11 577.73" xmlns="http://www.w3.org/2000/svg" xmlns:xlink="http://www.w3.org/1999/xlink"><style>:root>svg{display:none}:root>svg:target{display:block}</style><svg viewBox="0 0 244.047 486.391" id="f" xmlns="http://www.w3.org/2000/svg"><path d="M152.271 159.354l.122-41.951c0-21.857 1.52-33.561 32.831-33.561h57.941V0h-83.021c-80.559 0-99.1 41.617-99.1 109.985l.091 49.369-61.135.03V243.2h61.133v243.2H152.3l.061-243.2 82.778-.03 8.907-83.811z"/></svg><svg viewBox="0 0 49.576 49.575" id="i" xmlns="http://www.w3.org/2000/svg"><path d="M39.995 0H9.581A9.591 9.591 0 000 9.58v30.415a9.591 9.591 0 009.581 9.58H40a9.59 9.59 0 009.58-9.58V9.579A9.591 9.591 0 0039.995 0zm2.748 5.713h1.1v8.4l-8.375.027-.029-8.4zM17.712 19.7a8.71 8.71 0 11-1.651 5.088 8.723 8.723 0 011.651-5.088zm27.033 20.294a4.754 4.754 0 01-4.75 4.75H9.581a4.755 4.755 0 01-4.751-4.75V19.7h7.4a13.557 13.557 0 1025.113 0h7.4z"/></svg><svg viewBox="0 0 23 10" id="more-pointer" xmlns="http://www.w3.org/2000/svg"><path fill-rule="evenodd" d="M-.001 6.186h17.247v3.813L23 5 17.246-.001v3.813H-.001v2.374z"/></svg><svg viewBox="0 0 11.143 19.602" id="o" xmlns="http://www.w3.org/2000/svg"><path d="M5.5 10a5 5 0 10-5-5 5 5 0 005 5zm0-7a2 2 0 11-2 2 2 2 0 012-2zM7.331 14.049a9.34 9.34 0 003.15-1.224 1.4 1.4 0 00-1.476-2.379L9 10.451a6.715 6.715 0 01-6.882.064 1.4 1.4 0 00-1.442 2.4 9.349 9.349 0 003 1.133L.512 17.21a1.4 1.4 0 001.977 1.984L5.5 16.18l3.01 3.01a1.4 1.4 0 001.99-1.976z"/></svg><svg viewBox="0 0 578.106 577.729" id="phone" xmlns="http://www.w3.org/2000/svg"><path d="M577.83 455.94q1.837 14.077-8.568 24.48l-81.4 80.781a45.811 45.811 0 01-14.381 10.4 59.428 59.428 0 01-17.439 5.508q-.612 0-3.676.309t-7.953.307q-11.631 0-37.641-3.979t-63.645-19.584q-37.644-15.606-85.376-46.818t-101.592-85.68q-42.84-42.228-70.992-80.783t-45.288-71.3q-17.138-32.742-25.7-59.364T2.55 164.322Q-.51 145.044.1 134.028t.612-12.24a59.486 59.486 0 015.508-17.442 45.863 45.863 0 0110.4-14.382l81.4-81.4Q106.59 0 117.606 0a22.832 22.832 0 0114.076 4.59 42.547 42.547 0 0110.4 11.322l65.488 124.236a29.783 29.783 0 013.06 21.42 38.145 38.145 0 01-10.4 19.584l-29.992 29.988a10.207 10.207 0 00-2.142 3.978 15.1 15.1 0 00-.918 4.59q2.448 12.852 11.016 29.376 7.344 14.688 22.644 35.8t43.452 48.653q27.54 28.155 48.96 43.76t35.8 22.949q14.382 7.344 22.031 8.871l7.648 1.531a14.588 14.588 0 003.979-.918 10.22 10.22 0 003.979-2.143l34.883-35.5a37.492 37.492 0 0125.705-9.791q10.407 0 16.523 3.672h.611l118.115 69.768q12.859 7.964 15.306 20.204z"/></svg><svg viewBox="0 0 352.065 512" id="pin" xmlns="http://www.w3.org/2000/svg"><path d="M327.611 87.678C296.538 34.054 241.346 1.292 179.971.041a188.09 188.09 0 00-7.878 0C110.719 1.292 55.527 34.054 24.453 87.678-7.309 142.489-8.178 208.33 22.128 263.8l126.963 232.387c.057.1.114.206.173.308a30.861 30.861 0 0053.538 0c.059-.1.116-.2.173-.308L329.938 263.8c30.3-55.471 29.435-121.311-2.327-176.123zM176.032 232a72 72 0 1172-72 72.081 72.081 0 01-72 72z"/></svg><svg viewBox="0 0 448.011 415.971" id="pointer" xmlns="http://www.w3.org/2000/svg"><path d="M438.731 193.443l-416-192A16.086 16.086 0 003.6 5.923a15.911 15.911 0 00-.384 19.648l136.8 182.4-136.8 182.4A15.993 15.993 0 0022.7 414.5l416-192a16 16 0 00.032-29.056z"/></svg><svg viewBox="0 0 512.002 276.517" id="updown" xmlns="http://www.w3.org/2000/svg"><path d="M270.051 270.683L506.212 33.867A19.846 19.846 0 10478.105 5.84L256 228.56 33.9 5.832A19.847 19.847 0 005.8 33.866l236.15 236.817a19.836 19.836 0 0028.1 0z"/></svg><svg viewBox="0 0 548.359 312.863" id="v" xmlns="http://www.w3.org/2000/svg"><path d="M545.451 282.55a37.557 37.557 0 00-1.858-3.569q-14.271-25.7-54.532-63.1l-.567-.571-.284-.28-.287-.287h-.288q-18.27-17.417-23.123-23.415-8.865-11.421-4-23.13 3.423-8.85 25.7-37.4 11.711-15.134 18.556-24.267 49.4-65.67 42.828-83.939l-1.7-2.847q-1.714-2.571-8.846-4.712t-18.278-.712l-82.224.568a10.67 10.67 0 00-5.712.144l-3.713.859-1.431.715-1.136.859a12.69 12.69 0 00-3.142 3 19.591 19.591 0 00-2.848 5A466.2 466.2 0 01388 89.7q-10.565 17.7-19.418 30.693t-14.842 19.126a103.562 103.562 0 01-10.852 9.849q-4.856 3.717-7.419 3.142c-1.715-.383-3.33-.763-4.859-1.143a18.986 18.986 0 01-6.42-7 31.323 31.323 0 01-3.285-11.136q-.852-6.714-1-11.563t.145-13.706q.3-8.854.287-11.991 0-10.851.424-23.555t.716-20.125q.291-7.423.284-15.7a65.974 65.974 0 00-1-12.991 44.442 44.442 0 00-2.99-9.137 15.385 15.385 0 00-5.853-6.852 32.991 32.991 0 00-9.564-3.856Q287.225.326 263.811.041q-53.1-.57-68.236 6.855a38.462 38.462 0 00-10.848 8.562q-5.141 6.283-1.431 6.851 17.133 2.566 24.267 12.275l1.715 3.429q2 3.711 4 13.134a132.5 132.5 0 012.568 20.837 222.239 222.239 0 010 35.689q-1.429 14.85-2.712 23.127a46.3 46.3 0 01-3.855 13.418 56.612 56.612 0 01-3.428 6.28 4.915 4.915 0 01-1.425 1.427 21.387 21.387 0 01-7.71 1.431q-4 0-9.707-4a68.492 68.492 0 01-11.847-10.992 146.939 146.939 0 01-13.85-19.558q-7.706-12.561-15.987-29.691l-4.567-8.282q-4.283-7.992-11.7-23.267t-13.139-29.554a18.82 18.82 0 00-6.851-9.134l-1.429-.859a19.541 19.541 0 00-4.567-2.427 30.3 30.3 0 00-6.567-1.854l-78.229.568Q6.285 14.306 2 19.734L.859 21.445A9.236 9.236 0 000 26.015a22.731 22.731 0 001.714 7.707q17.13 40.26 37.257 77.659t34.973 60.237q14.845 22.844 30.264 43.112t20.412 25.981q5 5.718 7.854 8.565l7.139 6.851q6.852 6.853 20.127 16.416a343.34 343.34 0 0029.408 18.85 159.533 159.533 0 0037.546 15.126 129.822 129.822 0 0041.684 4.716h32.834q9.988-.862 15.133-6.283l1.136-1.431a18.927 18.927 0 002.139-5.276 29.005 29.005 0 001-7.851 94.076 94.076 0 011.852-22.124q2.135-9.846 4.859-14.846a36.491 36.491 0 016.136-8.418 24.812 24.812 0 014.862-4.142 18.632 18.632 0 012.276-1q6.852-2.283 16.136 4.429a94.767 94.767 0 0117.418 16.56q8.138 9.855 19.555 22.124t19.986 18.275l5.708 3.426a69.521 69.521 0 0014.853 6.283q9.122 2.853 15.984 1.427l73.087-1.14q10.843 0 16.844-3.572t7.139-7.851a22.109 22.109 0 00.145-9.712 35.835 35.835 0 00-2.009-7.563z"/></svg></svg>